<?xml version="1.0" standalone="no"?>
<!DOCTYPE svg PUBLIC "-//W3C//DTD SVG 20010904//EN"
 "http://www.w3.org/TR/2001/REC-SVG-20010904/DTD/svg10.dtd">
<svg version="1.0" xmlns="http://www.w3.org/2000/svg"
 width="550.000000pt" height="550.000000pt" viewBox="0 0 550.000000 550.000000"
 preserveAspectRatio="xMidYMid meet">
<metadata>
Created by potrace 1.11, written by Peter Selinger 2001-2013
</metadata>
<g transform="translate(0.000000,550.000000) scale(0.100000,-0.100000)"
fill="#000000" stroke="none">
<path d="M2568 5365 c-2 -2 -39 -6 -83 -9 -44 -4 -91 -8 -105 -11 -14 -3 -43
-8 -65 -11 -58 -7 -250 -49 -310 -67 -288 -88 -510 -193 -755 -358 -184 -124
-356 -275 -496 -435 -33 -37 -67 -76 -76 -86 -10 -10 -18 -20 -18 -23 0 -4
-19 -29 -45 -59 -18 -20 -111 -159 -155 -231 -59 -96 -150 -281 -195 -394 -60
-155 -79 -219 -140 -482 -2 -9 -7 -40 -10 -70 -4 -30 -9 -65 -11 -79 -25 -171
-24 -584 1 -705 4 -20 12 -71 21 -134 2 -18 6 -36 9 -40 2 -4 7 -21 9 -37 14
-75 40 -169 81 -289 91 -273 236 -539 425 -785 83 -108 335 -362 425 -430 33
-25 66 -50 73 -57 7 -7 26 -20 42 -30 17 -9 30 -21 30 -25 0 -4 7 -8 15 -8 8
0 15 -3 15 -8 0 -4 13 -13 28 -20 16 -6 37 -20 48 -30 45 -39 302 -170 444
-225 118 -47 330 -112 391 -120 19 -3 34 -6 34 -7 0 -4 98 -21 203 -36 178
-25 527 -25 692 1 19 3 67 11 105 17 39 6 77 12 85 13 22 3 176 43 250 66 290
88 631 268 875 464 160 128 339 311 450 460 16 22 33 42 36 45 9 7 131 195
160 245 46 81 126 245 149 301 12 33 28 73 35 89 17 40 73 214 79 245 3 14 12
50 20 80 8 30 18 73 21 95 4 22 8 49 10 60 1 11 6 40 9 65 4 25 9 52 11 60 16
63 24 397 12 560 -25 355 -162 791 -344 1098 -23 41 -43 76 -43 79 0 3 -13 22
-30 43 -16 21 -30 41 -30 44 0 4 -19 33 -42 64 -210 287 -487 545 -773 718
-127 77 -316 174 -341 174 -8 0 -14 4 -14 9 0 5 -10 11 -22 14 -13 3 -79 25
-148 49 -109 39 -250 79 -330 93 -14 3 -38 7 -53 11 -32 7 -47 9 -127 19 -30
4 -66 9 -80 12 -31 6 -446 14 -452 8z"/>
</g>
</svg>
